<?xml version="1.0" encoding="UTF-8" ?>
<!DOCTYPE svg PUBLIC "-//W3C//DTD SVG 1.1//EN" "http://www.w3.org/Graphics/SVG/1.1/DTD/svg11.dtd">
<svg width="266pt" height="433pt" viewBox="0 0 266 433" version="1.1" xmlns="http://www.w3.org/2000/svg">
<g id="#000000ff">
<path fill="#ffffff" opacity="1.00" d=" M 119.00 34.00 C 130.33 34.00 141.67 34.00 153.00 34.00 C 153.00 54.67 153.00 75.33 153.00 96.00 C 172.33 96.01 191.66 96.00 211.00 96.00 C 211.00 107.33 211.00 118.66 211.00 130.00 C 191.67 130.01 172.33 129.99 153.00 130.00 C 153.00 144.00 153.00 158.00 153.00 172.00 C 184.33 172.00 215.67 171.99 247.00 172.00 C 247.00 183.33 247.00 194.66 247.00 206.00 C 215.67 206.01 184.33 205.99 153.00 206.00 C 153.00 222.00 153.00 238.00 153.00 254.00 C 178.67 254.01 204.33 253.99 230.00 254.00 C 230.00 265.33 230.00 276.67 230.00 288.00 C 204.33 288.01 178.67 287.99 153.00 288.00 C 153.00 328.67 153.00 369.33 153.00 410.00 C 141.67 410.00 130.34 410.00 119.00 410.00 C 118.99 369.33 119.00 328.67 119.00 288.00 C 93.67 287.99 68.34 288.00 43.00 288.00 C 43.00 276.67 43.00 265.33 43.00 254.00 C 68.33 254.00 93.67 254.00 119.00 254.00 C 119.00 238.00 119.00 222.00 119.00 206.00 C 88.00 205.99 57.00 206.00 26.00 206.00 C 26.00 194.67 26.00 183.33 26.00 172.00 C 57.00 171.99 88.00 172.01 119.00 172.00 C 119.00 158.00 119.00 144.00 119.00 130.00 C 100.00 130.00 81.00 130.00 62.00 130.00 C 62.00 118.67 62.00 107.33 62.00 96.00 C 81.00 95.99 100.00 96.01 119.00 96.00 C 119.00 75.33 119.00 54.67 119.00 34.00 Z" />
</g>
</svg>
